<?xml version="1.0" standalone="no"?>
<!DOCTYPE svg PUBLIC "-//W3C//DTD SVG 20010904//EN"
 "http://www.w3.org/TR/2001/REC-SVG-20010904/DTD/svg10.dtd">
<svg version="1.0" xmlns="http://www.w3.org/2000/svg"
 width="500.000000pt" height="500.000000pt" viewBox="0 0 500.000000 500.000000"
 preserveAspectRatio="xMidYMid meet">

<g transform="translate(0.000000,500.000000) scale(0.100000,-0.100000)"
fill="#000000" stroke="none">
<path d="M2474 4446 c-21 -18 -66 -52 -98 -75 -33 -22 -54 -41 -47 -41 12 0
-27 -56 -84 -119 l-30 -34 44 32 c64 46 69 38 11 -19 -27 -28 -50 -54 -50 -59
0 -4 12 -11 26 -17 l26 -9 -22 -23 c-17 -18 -19 -27 -11 -35 15 -15 13 -88 -3
-109 -21 -28 -72 -23 -117 13 -21 17 -39 37 -39 44 0 16 69 75 87 75 7 0 13 5
13 10 0 13 -17 13 -25 -1 -4 -6 -13 -8 -21 -5 -8 3 -24 1 -36 -4 -21 -8 -21
-9 -3 -10 32 -1 -38 -56 -97 -76 -26 -8 -46 -20 -43 -24 6 -9 -113 -50 -145
-50 -11 0 -22 -4 -25 -10 -4 -6 23 -8 74 -5 44 2 83 1 85 -4 5 -8 -100 -41
-131 -41 -11 0 -14 -3 -7 -10 6 -6 48 0 118 16 60 14 110 23 113 20 2 -2 -6
-7 -19 -11 -13 -4 -36 -13 -53 -21 -16 -8 -55 -22 -85 -33 -71 -25 -55 -26 40
-2 41 11 77 18 78 16 2 -2 -18 -15 -45 -30 -64 -34 -14 -20 60 17 33 16 56 24
52 18 -3 -5 -24 -19 -46 -30 -21 -11 -39 -23 -39 -26 0 -3 5 -2 10 1 6 3 10 4
10 1 0 -3 -20 -14 -45 -25 -25 -11 -45 -22 -45 -24 0 -9 93 23 127 44 49 31
53 16 4 -17 -23 -14 -41 -28 -41 -31 0 -6 72 35 100 57 14 10 39 22 55 25 29
6 28 4 -23 -44 -29 -28 -105 -90 -169 -138 -100 -75 -114 -88 -98 -97 9 -6 32
-20 49 -31 77 -50 176 -103 226 -123 75 -29 179 -56 186 -49 4 3 13 -1 21 -9
9 -8 21 -13 28 -10 8 3 15 -1 18 -8 3 -7 23 -18 45 -24 22 -7 43 -19 46 -27 3
-8 11 -15 18 -15 9 0 9 3 -2 11 -11 8 -8 9 15 4 127 -29 338 -24 319 7 -5 8
-2 9 10 5 14 -6 126 20 336 78 30 8 57 20 58 25 2 6 7 8 11 6 3 -3 6 7 5 21 0
20 -11 31 -42 48 -76 41 -152 89 -152 97 0 4 18 8 41 8 22 0 38 4 35 9 -3 4
-44 23 -91 40 -46 18 -87 37 -90 42 -9 13 10 11 48 -4 50 -22 227 -70 233 -64
5 4 -11 11 -134 54 -62 22 -45 27 28 8 34 -9 65 -14 68 -11 3 3 -1 6 -9 6 -9
0 -24 6 -35 14 -15 12 0 11 70 -5 112 -24 127 -23 56 1 l-55 20 58 -5 c64 -6
71 9 9 20 -20 3 -44 11 -52 16 -12 8 -9 9 10 5 68 -16 98 -14 35 3 l-70 18 75
-4 c55 -2 69 -1 53 6 -31 14 -29 25 3 17 17 -5 23 -3 19 4 -3 5 -16 10 -28 10
-12 0 -29 5 -37 10 -12 7 -8 10 15 10 17 0 37 5 45 10 11 7 -3 10 -47 10 -35
0 -63 4 -63 10 0 6 26 10 57 10 31 0 54 2 52 4 -2 2 -47 9 -99 15 -53 7 -115
18 -140 25 -39 11 -41 13 -19 19 13 4 60 7 104 7 91 0 89 11 -5 29 -81 16
-104 33 -35 26 l50 -5 -55 20 c-30 11 -64 25 -75 31 -20 12 -20 11 -2 -9 18
-20 18 -23 -9 -106 -25 -79 -29 -86 -53 -86 -20 0 -29 7 -37 29 -9 23 -7 38
12 87 18 43 21 60 12 65 -18 11 -23 5 -43 -48 -10 -26 -19 -50 -21 -52 -2 -2
-16 6 -32 18 -18 12 -45 21 -66 21 -34 0 -36 -1 -26 -21 7 -11 10 -23 7 -25
-2 -3 -10 9 -16 25 -9 21 -10 35 -2 49 15 28 14 62 -1 63 -7 0 -3 4 10 9 25
10 30 40 7 40 -8 0 -15 5 -15 10 0 7 6 7 19 0 11 -5 22 -7 24 -3 3 5 -24 28
-59 52 -35 24 -62 46 -60 48 2 3 27 -7 55 -21 28 -15 67 -26 88 -26 l38 0 -45
26 c-65 36 -141 114 -134 136 4 12 -11 30 -55 64 -33 26 -63 54 -67 63 -3 9
-27 35 -53 58 l-48 43 -39 -34z m83 -226 c41 -15 56 -49 34 -78 -12 -16 -24
-21 -41 -18 -14 2 -28 5 -32 5 -11 2 -29 67 -22 84 7 20 20 21 61 7z m53 -209
c0 -14 -18 -23 -30 -16 -6 4 -8 11 -5 16 8 12 35 12 35 0z m-10 -61 c0 -13 -7
-20 -20 -20 -19 0 -27 20 -13 33 13 14 33 6 33 -13z m-2 -206 c4 -27 -26 -40
-46 -20 -21 20 -8 48 20 44 14 -2 24 -11 26 -24z m-125 1 c1 -5 -6 -11 -15
-13 -11 -2 -18 3 -18 13 0 17 30 18 33 0z m242 -175 c3 -6 -1 -13 -10 -16 -19
-8 -30 0 -20 15 8 14 22 14 30 1z m-469 -36 c9 -34 -13 -56 -50 -52 -27 3 -31
7 -34 34 -3 27 1 33 25 42 36 12 52 6 59 -24z"/>
<path d="M2785 4205 c27 -25 54 -45 59 -45 5 0 -12 16 -37 36 -26 20 -47 41
-47 45 0 5 -6 9 -12 9 -7 -1 9 -21 37 -45z"/>
<path d="M2189 4163 c-13 -16 -12 -17 4 -4 16 13 21 21 13 21 -2 0 -10 -8 -17
-17z"/>
<path d="M2218 4103 c-10 -2 -18 -9 -18 -14 0 -13 13 -11 36 6 19 14 14 17
-18 8z"/>
<path d="M2922 4077 c0 -17 6 -31 19 -38 19 -10 20 -9 9 11 -11 20 -10 21 10
15 15 -5 20 -4 16 4 -4 6 -15 11 -24 11 -14 0 -14 1 1 13 16 11 15 12 -6 12
-19 0 -24 -5 -25 -28z"/>
<path d="M2860 4021 c0 -5 7 -14 15 -21 8 -7 15 -9 15 -4 0 4 6 0 13 -11 8
-10 19 -15 25 -11 20 12 14 24 -20 40 -35 18 -48 20 -48 7z"/>
<path d="M2895 3919 c-4 -6 -5 -12 -2 -15 2 -3 7 2 10 11 7 17 1 20 -8 4z"/>
<path d="M1635 3520 c-3 -6 1 -7 10 -4 11 5 14 2 9 -10 -4 -11 -2 -15 8 -11
16 6 22 -26 7 -35 -5 -4 17 -22 48 -40 l57 -35 -114 -5 c-112 -5 -113 -5 -51
-12 35 -5 79 -8 97 -8 19 0 34 -4 34 -10 0 -6 -35 -10 -82 -11 -46 0 -105 -4
-133 -9 l-50 -7 55 -2 c68 -3 57 -8 -40 -20 -67 -9 -63 -9 39 -4 144 7 141 -9
-6 -28 -107 -13 -107 -14 -53 -20 30 -3 46 -7 35 -8 -11 -1 -27 -6 -35 -12
-11 -8 -7 -9 18 -5 96 17 100 17 54 -1 -25 -10 -41 -22 -38 -30 3 -6 0 -14 -7
-16 -7 -3 21 -3 62 1 81 6 93 -9 19 -24 l-43 -8 37 -4 c20 -2 60 4 89 12 68
21 76 13 10 -9 -28 -9 -53 -21 -56 -25 -3 -5 6 -6 22 0 44 13 104 20 98 10 -3
-5 -33 -17 -67 -26 -34 -10 -57 -19 -50 -22 6 -2 41 6 78 17 38 11 70 18 72
16 4 -4 -91 -56 -123 -66 -13 -5 -15 -7 -5 -8 9 -1 74 19 144 44 71 25 133 44
138 43 14 -5 -169 -99 -272 -140 l-95 -38 65 6 65 5 -78 -35 c-43 -20 -81 -36
-86 -36 -4 0 -16 -9 -26 -20 -17 -19 -17 -20 -2 -14 10 3 23 1 30 -4 9 -8 36
-2 97 23 47 19 87 35 89 35 15 1 -32 -36 -72 -56 l-48 -25 42 -77 c23 -42 51
-90 61 -105 25 -35 15 -50 -59 -83 -63 -29 -70 -29 -78 -5 -4 14 -15 19 -40
19 -19 0 -37 -4 -40 -9 -3 -4 -12 -6 -20 -2 -11 4 -15 -3 -15 -24 0 -25 -6
-33 -42 -49 l-42 -19 29 -6 30 -6 -25 -10 c-14 -6 -53 -19 -88 -29 -45 -13
-61 -21 -60 -33 2 -11 -6 -17 -22 -19 -20 -2 -26 2 -27 19 -1 12 -8 26 -15 30
-9 6 -7 9 7 10 11 0 14 3 7 6 -6 2 -9 10 -6 16 5 8 2 8 -7 0 -21 -20 -42 -16
-36 7 7 29 -11 25 -25 -5 -12 -27 -33 -33 -41 -12 -4 7 -6 6 -6 -4 -1 -9 6
-19 14 -23 8 -3 15 -12 15 -20 0 -12 -7 -14 -29 -10 -28 6 -30 5 -35 -37 -3
-24 -8 -83 -11 -131 -4 -76 -3 -88 11 -88 8 0 25 -5 37 -12 13 -7 49 -11 83
-9 34 1 64 -2 68 -7 3 -5 -41 -22 -98 -38 -57 -16 -102 -33 -99 -37 3 -5 -4
-6 -15 -2 -12 3 -46 0 -76 -7 -54 -12 -55 -13 -28 -24 l27 -12 -25 -2 -25 -2
28 -10 c19 -7 48 -6 94 2 36 6 68 9 71 5 3 -3 -2 -5 -10 -5 -9 0 -29 -7 -44
-15 -16 -8 -37 -15 -47 -15 -11 0 -15 -4 -11 -12 5 -8 2 -9 -9 -5 -10 4 -17 2
-17 -4 0 -7 11 -9 28 -5 15 3 50 10 77 15 28 5 70 17 94 25 24 9 46 14 48 12
3 -2 -42 -19 -99 -36 -57 -18 -116 -38 -133 -46 l-30 -13 47 0 c62 -1 134 18
177 46 19 12 37 20 40 18 8 -8 -32 -46 -77 -72 -24 -14 -41 -27 -39 -30 3 -2
53 14 112 37 122 45 115 44 115 29 0 -5 -25 -21 -55 -35 -32 -15 -55 -32 -55
-41 0 -24 131 -14 161 12 21 19 22 19 16 1 -7 -17 -3 -18 38 -14 42 5 45 4 45
-18 0 -30 31 -33 51 -5 10 13 20 16 39 11 24 -7 24 -8 5 -15 -44 -17 -86 -75
-55 -75 22 0 78 29 111 57 19 17 50 38 69 48 33 17 31 14 -22 -43 -32 -33 -58
-64 -58 -67 0 -4 20 5 45 19 43 26 45 26 45 6 0 -36 36 -19 41 19 3 21 14 28
62 42 31 9 57 13 57 9 0 -5 -4 -11 -9 -15 -5 -3 -24 -24 -42 -46 l-32 -41 39
20 c21 11 58 25 82 32 24 6 51 14 60 17 13 4 12 2 -3 -11 l-20 -17 20 5 c11 2
45 7 76 11 31 3 77 17 104 31 27 13 51 24 53 24 3 0 -28 -24 -67 -52 -40 -29
-68 -54 -62 -56 19 -6 81 19 113 46 23 20 30 22 25 10 -8 -22 1 -23 24 -2 11
10 31 14 59 12 l43 -3 -39 -25 c-43 -28 -57 -60 -27 -60 11 0 28 7 39 15 34
25 39 16 8 -16 -28 -30 -28 -31 -5 -24 l24 7 -5 -166 -6 -167 35 40 c45 53 80
55 127 9 18 -18 36 -42 39 -53 7 -19 6 -19 -7 -2 -10 13 -21 15 -45 11 -17 -4
-34 -11 -37 -15 -3 -5 -10 -6 -16 -3 -7 4 -8 2 -4 -4 4 -7 3 -12 -2 -12 -6 0
-8 -10 -5 -21 5 -20 4 -20 -18 -9 -13 7 -34 22 -46 33 l-23 20 0 -35 c0 -27
-6 -40 -26 -53 -22 -14 -25 -23 -22 -56 2 -21 1 -39 -2 -39 -3 0 -18 16 -33
35 -32 40 -47 43 -65 14 -7 -12 -16 -18 -19 -15 -4 3 -12 1 -19 -5 -12 -10
-108 -39 -129 -39 -5 0 -3 5 5 11 12 8 11 9 -7 4 -19 -5 -22 0 -32 45 -6 28
-11 66 -11 84 0 52 -15 58 -162 62 -73 2 -125 1 -115 -2 9 -3 17 -10 17 -15 0
-16 -36 -10 -58 11 -26 24 -36 25 -87 1 l-40 -19 28 -11 c16 -6 36 -11 45 -11
26 0 43 -15 42 -36 0 -10 -4 -59 -8 -109 l-7 -90 -55 -7 c-30 -4 -97 -16 -148
-27 -92 -19 -94 -19 -125 -1 -29 18 -182 175 -216 222 -7 11 -10 23 -5 28 5 5
80 12 167 16 155 7 157 7 157 30 0 28 -69 89 -84 74 -14 -14 -82 -12 -143 3
-29 8 -50 10 -47 5 3 -5 -16 -6 -45 -2 -27 3 -60 4 -73 0 -28 -7 -80 -51 -71
-60 3 -3 -5 -6 -18 -6 -14 0 -29 -4 -34 -8 -6 -5 -26 -15 -45 -22 -19 -7 -44
-21 -55 -31 -17 -15 -84 -39 -109 -39 -4 0 -6 20 -5 44 l4 44 -110 7 c-60 3
-125 9 -144 12 -19 2 -48 2 -65 -1 l-31 -6 1 -123 c1 -67 2 -128 3 -135 1 -10
12 -12 38 -9 66 9 63 26 63 -314 0 -241 3 -309 13 -309 6 0 197 -20 422 -45
451 -49 472 -50 563 -31 l62 13 0 -63 0 -62 73 -12 c39 -6 82 -13 95 -16 l22
-4 1 157 c1 87 4 145 6 128 6 -37 20 -55 44 -55 18 0 19 -9 19 -119 0 -136 -9
-124 110 -137 58 -6 100 -1 207 21 19 4 22 14 28 79 6 66 11 77 39 103 26 24
28 24 10 3 -24 -28 -28 -57 -7 -57 7 0 9 5 5 12 -4 6 1 2 11 -8 11 -13 17 -35
17 -67 l0 -48 43 9 c145 30 167 48 167 137 0 47 3 63 13 59 9 -3 12 16 12 79
0 46 -3 84 -7 84 -5 0 -8 5 -8 11 0 5 5 7 10 4 6 -3 10 -1 10 4 0 6 -4 11 -9
11 -4 0 -8 10 -7 22 1 17 14 29 51 46 27 13 64 26 82 29 l33 6 2 -154 c0 -85
1 -160 1 -166 -1 -7 5 -13 13 -13 8 0 14 5 14 11 0 5 4 8 9 5 4 -3 46 1 92 10
111 21 237 43 329 57 l75 12 6 155 c4 85 7 170 8 188 0 17 5 32 11 32 17 0 50
34 49 50 0 9 -2 10 -5 3 -3 -7 -12 -9 -21 -6 -10 4 -14 2 -9 -5 3 -6 1 -14 -5
-18 -7 -4 -9 -3 -6 2 3 6 2 16 -3 23 -7 12 -19 11 -75 -3 -37 -9 -70 -15 -72
-12 -3 3 -5 53 -4 112 l2 107 -23 -7 c-13 -3 -27 -6 -33 -6 -6 0 -9 -50 -8
-132 1 -99 -1 -120 -7 -83 -5 28 -9 73 -9 100 -2 66 -10 93 -30 98 -11 3 -9 5
6 6 29 1 39 20 18 35 -15 11 -16 17 -4 55 13 43 13 44 -19 72 -18 16 -32 35
-32 43 0 8 -4 17 -9 20 -13 9 -102 -24 -138 -50 -17 -13 -34 -24 -37 -24 -3 0
-6 23 -6 52 0 46 4 54 38 87 l39 37 -8 59 c-4 33 -8 84 -8 113 -1 46 1 52 19
52 11 0 28 8 38 17 38 36 55 42 85 27 15 -8 27 -12 27 -8 0 4 8 0 18 -7 9 -7
5 0 -10 17 -34 36 -36 51 -6 30 12 -9 29 -16 36 -16 12 0 12 3 1 17 -12 15
-12 16 4 10 16 -6 16 -5 1 25 l-17 32 24 -17 c55 -38 89 -56 89 -46 0 7 11 4
26 -6 14 -9 28 -14 31 -12 2 3 -26 26 -64 51 -37 25 -65 46 -61 46 3 0 39 -16
79 -35 41 -19 83 -35 94 -35 17 0 14 6 -19 36 -21 19 -36 38 -32 41 3 3 28 -8
56 -25 56 -35 160 -82 123 -55 -13 8 -23 19 -23 24 0 10 30 -1 104 -36 27 -13
53 -22 56 -19 5 6 -54 62 -105 101 -17 13 1 5 40 -17 38 -22 92 -47 120 -56
27 -9 56 -19 64 -22 8 -3 4 9 -10 31 -13 19 -27 33 -31 31 -8 -5 -88 33 -88
41 0 2 12 0 26 -5 32 -13 37 -12 29 0 -7 11 46 -8 173 -65 102 -45 137 -41 80
9 -21 18 -38 37 -38 41 0 4 24 5 53 3 49 -5 51 -5 30 9 -45 30 -21 30 55 1 50
-20 100 -32 142 -34 48 -2 55 -1 25 4 -31 5 -36 9 -22 15 10 4 32 7 49 7 l30
0 -30 25 c-17 14 -45 30 -62 36 -47 17 -31 20 21 5 53 -16 157 -27 164 -17 2
4 -28 18 -67 30 -50 16 -67 26 -57 32 8 5 23 8 34 8 19 0 20 -1 1 -8 -15 -6
-5 -11 42 -23 34 -9 59 -12 57 -7 -3 4 -22 11 -41 15 -19 3 -33 8 -31 11 3 2
34 -1 70 -7 104 -19 121 -6 20 14 -51 10 -93 22 -93 26 0 3 28 1 63 -6 34 -8
75 -14 91 -14 28 0 29 1 10 15 -18 14 -17 14 16 16 l35 2 -40 7 c-108 19 -302
63 -315 71 -17 9 17 5 145 -16 85 -14 212 -27 182 -19 -9 3 -15 9 -13 13 3 4
-39 13 -92 19 -53 7 -110 16 -127 21 -28 9 -29 9 -5 11 17 1 6 7 -34 20 -55
17 -109 50 -61 37 23 -7 135 -27 147 -27 4 0 8 19 7 43 l-1 42 -11 -35 -10
-35 -7 30 c-4 17 -8 49 -9 72 -1 35 3 43 21 49 15 4 25 1 35 -12 12 -17 13
-17 13 4 0 17 -13 29 -55 49 -30 15 -55 33 -55 40 0 18 9 16 48 -7 32 -20 52
-19 52 1 0 5 -6 9 -14 9 -19 0 -40 26 -26 35 5 3 10 14 9 23 0 11 -3 12 -6 5
-7 -18 -33 -16 -33 1 0 16 -18 31 -26 23 -3 -3 0 -14 7 -26 17 -26 3 -40 -16
-15 -8 10 -15 14 -15 7 0 -6 -6 -13 -12 -16 -7 -2 -6 -3 3 -2 21 3 13 -33 -8
-37 -11 -2 -9 -11 12 -42 23 -33 24 -41 12 -53 -17 -18 -50 -6 -92 34 -17 15
-35 29 -40 31 -6 1 -10 7 -10 14 0 7 -11 16 -25 20 -22 6 -21 7 8 4 20 -1 31
2 29 8 -2 6 -19 12 -38 14 -42 4 -64 22 -27 22 14 0 37 9 51 20 19 15 33 18
59 14 l33 -7 -29 23 c-26 22 -30 22 -41 7 -15 -20 -28 -21 -114 -5 l-66 12 38
11 38 11 -26 24 c-31 29 -31 36 -3 80 26 40 48 97 48 123 0 22 8 21 47 -3 l33
-20 -26 -47 c-35 -64 -43 -71 -54 -53 -5 8 -12 12 -15 8 -4 -3 0 -12 8 -19 11
-10 12 -21 5 -38 -5 -14 -7 -30 -4 -37 5 -14 75 -24 82 -12 3 4 1 8 -5 8 -6 0
-8 7 -5 15 4 10 13 13 24 10 10 -3 22 0 26 6 5 9 2 10 -9 6 -9 -3 -19 -1 -23
4 -3 6 -15 9 -25 6 -11 -3 -19 -1 -19 4 0 5 38 9 84 9 51 0 97 6 117 15 l34
14 -40 2 c-22 1 -53 5 -70 9 l-30 8 35 2 c119 8 131 20 20 20 -102 0 -96 15
10 25 41 3 76 8 79 11 2 2 -36 5 -85 5 l-89 2 62 8 c105 13 111 33 12 37 -106
4 -106 21 1 23 92 2 93 3 30 8 -60 6 -62 7 -32 15 43 10 37 15 -24 21 -146 14
-179 32 -71 38 36 2 16 4 -48 4 -98 1 -106 0 -72 -10 22 -7 35 -15 31 -19 -4
-5 10 -9 32 -9 24 -1 30 -3 16 -6 -13 -3 -26 -11 -29 -19 -7 -19 -23 -18 -23
2 0 40 -64 -75 -75 -134 -2 -14 -10 -30 -16 -36 -9 -8 -10 -7 -6 6 3 9 0 19
-9 22 -9 3 -16 -3 -20 -19 -3 -14 -11 -25 -16 -25 -10 0 -7 30 7 63 5 12 3 17
-8 17 -17 0 -42 -54 -32 -69 11 -19 -14 -12 -34 10 -22 24 -46 77 -38 85 3 3
14 1 25 -5 20 -11 35 -3 61 32 18 23 9 22 -19 -3 -25 -22 -40 -18 -40 11 0 14
7 19 25 19 14 0 25 5 25 10 0 6 -7 10 -16 10 -8 0 -12 5 -9 10 3 6 1 10 -4 10
-6 0 -11 5 -11 10 0 6 9 10 20 10 12 0 20 7 20 16 0 12 -6 15 -23 11 -12 -4
-76 -9 -142 -13 -139 -7 -158 -3 -410 82 -206 69 -257 89 -249 96 3 4 -3 4
-14 1 -15 -3 -20 0 -19 13 1 10 -5 19 -13 19 -8 0 -15 6 -15 14 0 19 -53 37
-67 23 -8 -8 -4 -9 13 -6 19 5 21 4 9 -5 -12 -10 -10 -11 10 -8 14 2 19 2 12
0 -11 -4 -11 -8 0 -21 9 -11 2 -9 -23 6 -20 12 -40 18 -44 14 -5 -4 -5 2 -1
12 5 16 4 17 -9 6 -11 -9 -15 -9 -15 -1 0 7 -4 9 -10 6 -5 -3 -10 -1 -10 5 0
6 -4 8 -10 5 -5 -3 -10 -1 -10 5 0 6 -4 9 -9 6 -5 -3 -50 14 -100 39 -50 25
-95 45 -99 45 -4 0 -58 33 -120 74 -62 40 -168 100 -237 131 -68 32 -121 63
-118 68 4 6 -3 8 -15 5 -12 -4 -20 -2 -16 3 3 5 -2 9 -12 9 -9 0 -23 8 -30 18
-9 11 -13 13 -14 4 0 -7 -5 -10 -10 -7 -8 5 -7 12 2 23 10 12 10 14 0 8 -7 -4
-19 0 -28 8 -18 18 -30 20 -39 6z m221 -385 c-11 -8 -25 -15 -30 -15 -6 0 -2
7 8 15 11 8 25 15 30 15 6 0 2 -7 -8 -15z m193 -173 c18 -41 20 -44 21 -19 0
15 4 27 8 27 10 0 32 -45 32 -64 0 -27 120 -252 146 -275 48 -41 182 -119 256
-147 174 -66 389 -101 563 -90 104 6 382 49 393 61 4 4 -2 6 -13 5 -37 -4 -53
0 -76 20 l-24 20 45 -16 c51 -18 107 -21 165 -11 l40 7 -40 -35 c-51 -45 -136
-90 -228 -121 -237 -81 -693 -2 -904 156 -28 22 -57 40 -63 40 -6 0 -25 7 -41
16 -29 15 -32 14 -65 -11 l-34 -26 0 51 c0 54 -16 92 -70 170 l-32 45 5 -65
c5 -76 40 -155 93 -213 40 -44 177 -146 314 -237 101 -66 263 -148 345 -174
128 -41 329 -37 451 9 56 21 78 24 133 20 l66 -6 -35 17 c-42 21 -20 31 34 15
22 -5 38 -6 42 0 7 12 44 12 44 0 0 -15 -98 -58 -195 -86 -202 -58 -421 -53
-643 15 -76 24 -78 24 -63 7 6 -8 8 -16 6 -19 -3 -3 12 -8 33 -12 59 -9 75
-33 67 -100 -4 -31 -12 -59 -17 -62 -6 -4 -6 -9 2 -14 8 -5 8 -9 -3 -13 -15
-6 -18 15 -4 29 4 4 7 12 7 18 0 5 -13 -2 -28 -17 -28 -27 -30 -27 -83 -16
-30 6 -60 18 -66 27 -30 38 -6 111 47 147 40 27 23 47 -80 89 -123 52 -189 92
-274 169 -77 70 -150 164 -161 209 -7 27 -55 75 -95 96 -14 7 -45 31 -70 52
l-45 38 0 147 c1 143 1 147 25 165 32 24 44 17 69 -38z m451 3 c0 -8 18 -26
40 -40 40 -25 52 -50 46 -95 -5 -34 -4 -34 -19 -22 -14 12 -32 4 -38 -15 -5
-15 -95 25 -110 48 -25 39 -2 88 49 103 24 8 29 22 10 29 -8 3 -6 6 5 6 9 1
17 -6 17 -14z m-963 -91 c-3 -3 -12 -4 -19 -1 -8 3 -5 6 6 6 11 1 17 -2 13 -5z
m318 -174 c-22 -24 -68 -26 -89 -4 -21 21 -20 40 4 64 11 11 20 24 20 29 0 5
10 11 23 13 18 2 26 -5 41 -40 18 -41 18 -43 1 -62z m672 48 c-17 -11 -65 -10
-72 1 -3 5 14 9 39 8 24 -1 39 -5 33 -9z m491 -81 c2 -11 -3 -17 -16 -17 -26
0 -34 11 -20 27 14 17 32 12 36 -10z m-312 -2 c7 -18 -13 -45 -33 -45 -19 0
-28 27 -13 45 16 19 39 19 46 0z m-976 -135 c0 -13 -7 -20 -20 -20 -19 0 -27
20 -13 33 13 14 33 6 33 -13z m1518 -48 c4 -23 -12 -29 -37 -13 -19 12 -6 43
16 39 10 -2 19 -13 21 -26z m-1935 -79 c-7 -2 -19 -2 -25 0 -7 3 -2 5 12 5 14
0 19 -2 13 -5z m89 -29 c-64 -28 -116 -37 -167 -29 l-50 8 38 9 c23 5 46 4 56
-2 12 -6 22 -5 29 2 12 12 66 26 102 26 23 0 22 -1 -8 -14z m-228 -30 c9 -3
16 -13 16 -21 0 -20 -34 -12 -38 10 -4 19 -1 20 22 11z m2766 -49 c0 -21 -17
-18 -30 4 -15 28 -13 33 10 21 11 -6 20 -17 20 -25z m-630 -9 c0 -11 -19 -15
-25 -6 -3 5 1 10 9 10 9 0 16 -2 16 -4z m550 -82 c0 -5 -7 -19 -15 -30 -13
-18 -14 -15 -15 30 0 46 1 48 15 30 8 -10 15 -24 15 -30z m-76 21 c25 -19 16
-19 -20 0 -16 8 -22 15 -14 15 8 -1 24 -7 34 -15z m-2354 1 c0 -2 -8 -10 -17
-17 -16 -13 -17 -12 -4 4 13 16 21 21 21 13z m2315 -17 c62 -23 75 -43 18 -27
-41 11 -93 35 -93 43 0 9 19 5 75 -16z m-2291 -31 c9 -12 16 -35 16 -50 0 -26
-3 -28 -39 -28 -22 0 -46 -3 -55 -6 -10 -4 -16 -1 -16 7 0 7 -8 21 -17 32 -17
19 -17 19 7 12 23 -7 24 -7 10 11 -14 18 -14 18 4 4 17 -14 21 -13 39 13 25
33 31 33 51 5z m2261 7 c33 -15 17 -19 -34 -9 -17 4 -31 10 -31 15 0 13 30 10
65 -6z m-66 -21 c3 -3 0 -8 -5 -13 -11 -12 -91 2 -107 19 -9 9 1 10 48 5 33
-4 62 -9 64 -11z m-2139 -4 c13 -8 13 -10 -2 -10 -9 0 -20 5 -23 10 -8 13 5
13 25 0z m480 -15 c27 -33 -8 -70 -42 -43 -12 10 -14 19 -7 36 10 25 31 29 49
7z m-325 -25 c3 -10 22 -25 43 -33 20 -9 46 -23 57 -32 19 -16 18 -16 -20 -9
-64 12 -148 9 -179 -8 l-28 -15 31 -12 c17 -8 37 -11 46 -7 14 5 16 -2 15 -51
0 -5 -12 -11 -26 -15 -18 -5 -31 -1 -44 12 -17 17 -60 92 -60 104 0 3 17 6 38
8 23 2 36 8 35 16 -2 8 9 12 31 12 44 0 55 18 26 40 l-24 18 27 -5 c14 -3 29
-13 32 -23z m-407 -35 c-10 -10 -151 -56 -156 -51 -6 6 5 11 86 37 59 19 79
23 70 14z m1032 -80 c29 -35 -20 -87 -86 -90 -39 -1 -48 2 -57 22 -5 13 -20
24 -31 24 -20 1 -20 2 -1 6 11 3 33 16 50 29 35 28 105 33 125 9z m1255 -5 c3
-5 -1 -10 -10 -10 -9 0 -13 5 -10 10 3 6 8 10 10 10 2 0 7 -4 10 -10z m10 -46
c16 -24 16 -27 -1 -45 -21 -23 -57 -21 -62 3 -3 18 25 68 38 68 4 0 15 -12 25
-26z m224 -95 c30 -10 66 -19 80 -19 14 0 33 -5 41 -10 11 -7 3 -10 -30 -9
-31 0 -67 11 -115 35 -72 35 -69 36 24 3z m-1189 -180 c0 -6 -4 -7 -10 -4 -5
3 -10 11 -10 16 0 6 5 7 10 4 6 -3 10 -11 10 -16z m-92 -31 c-4 -27 -23 -34
-32 -13 -8 21 1 35 20 35 10 0 14 -8 12 -22z m-911 -304 c-3 -3 -12 -4 -19 -1
-8 3 -5 6 6 6 11 1 17 -2 13 -5z m76 -41 c-7 -2 -19 -2 -25 0 -7 3 -2 5 12 5
14 0 19 -2 13 -5z m88 -30 c5 -14 4 -25 -3 -29 -6 -4 -8 -3 -5 3 4 6 0 14 -9
17 -10 4 -13 2 -8 -7 4 -6 -5 1 -19 16 -15 15 -27 29 -27 31 0 2 14 1 31 -3
20 -4 35 -15 40 -28z m404 -132 c5 -17 17 -21 68 -24 46 -2 56 -5 40 -11 -22
-8 -23 -13 -23 -132 0 -68 -4 -124 -9 -124 -15 0 -21 41 -21 146 0 94 -2 102
-21 107 -29 8 -33 -11 -26 -113 6 -84 6 -88 -13 -83 -11 3 -20 3 -20 1 0 -14
33 -68 41 -68 21 0 7 -22 -22 -34 -17 -7 -30 -17 -30 -22 1 -10 -23 -10 -86 1
-27 5 -43 4 -43 -2 0 -18 23 -30 82 -41 136 -26 188 -77 188 -180 0 -56 -12
-74 -89 -136 l-24 -18 9 48 c12 67 6 169 -11 212 -20 47 -25 38 -14 -28 5 -30
7 -67 4 -81 -7 -31 -56 -70 -108 -86 l-39 -11 6 33 c4 19 18 59 32 89 35 76
30 118 -13 131 -22 6 -33 15 -33 27 0 10 -5 18 -11 18 -5 0 -8 4 -5 8 3 5 -1
9 -7 9 -9 0 -12 -10 -9 -29 4 -23 13 -33 44 -45 21 -8 37 -18 34 -20 -11 -11
-153 -22 -181 -14 -29 8 -27 9 28 20 31 7 57 17 57 22 0 5 -38 9 -84 9 l-85 0
-33 -39 -33 -40 -22 21 -23 21 0 -53 c0 -71 -14 -55 -20 23 l-5 62 -65 11
c-36 6 -76 16 -90 23 -20 9 -12 10 45 4 39 -3 106 -7 150 -8 44 0 85 -4 92 -8
6 -4 15 -1 20 6 4 8 19 20 32 27 24 12 24 13 5 27 -13 10 -33 12 -65 8 -49 -7
-77 10 -66 39 5 13 2 13 -18 4 -14 -6 -25 -15 -25 -20 0 -12 -64 -38 -95 -38
l-25 0 0 130 c0 72 4 130 9 130 5 0 28 -7 51 -15 53 -19 60 -19 60 -1 0 22 60
-4 73 -31 7 -15 18 -21 38 -21 16 1 32 -2 36 -5 3 -4 11 0 17 8 6 8 36 21 66
29 49 13 56 12 68 -2 10 -13 12 -5 12 46 0 59 1 62 28 68 15 3 47 11 72 18 73
19 98 19 105 -3z m491 -21 c50 -5 97 -12 105 -15 11 -4 13 -29 11 -120 l-3
-114 -37 -6 c-20 -4 -80 -15 -132 -24 -82 -16 -107 -17 -182 -7 -48 7 -91 15
-95 19 -4 4 -9 61 -11 126 -4 117 -4 119 19 126 73 23 193 29 325 15z m-1896
-170 c0 -5 -4 -10 -9 -10 -6 0 -13 5 -16 10 -3 6 1 10 9 10 9 0 16 -4 16 -10z
m-176 -56 c20 -8 21 -48 1 -64 -35 -29 -74 20 -45 56 14 16 21 17 44 8z m106
-110 c0 -8 -9 -14 -20 -14 -22 0 -28 26 -7 33 16 6 27 -1 27 -19z m1707 -28
c8 -8 -50 -33 -93 -41 -28 -4 -44 -3 -49 5 -5 9 -1 10 12 6 13 -4 20 -2 20 8
0 10 -12 14 -41 14 -80 -1 -103 5 -46 11 61 7 189 5 197 -3z m-732 -196 c3 -5
1 -10 -4 -10 -6 0 -11 5 -11 10 0 6 2 10 4 10 3 0 8 -4 11 -10z"/>
<path d="M2080 2877 c0 -2 11 -29 24 -58 26 -57 36 -43 12 15 -12 28 -36 57
-36 43z"/>
<path d="M1796 912 c-3 -5 5 -23 17 -40 23 -32 47 -49 47 -32 0 6 -4 10 -9 10
-5 0 -15 16 -21 35 -11 34 -23 44 -34 27z"/>
<path d="M1903 843 c0 -19 24 -53 39 -53 12 0 10 38 -3 46 -8 4 -9 -1 -4 -17
7 -21 6 -22 -8 -11 -8 7 -13 21 -10 32 3 11 1 20 -4 20 -5 0 -10 -8 -10 -17z"/>
<path d="M2077 846 c-16 -12 -14 -14 18 -20 41 -8 57 -2 48 19 -7 19 -42 19
-66 1z"/>
<path d="M2053 803 c9 -2 25 -2 35 0 9 3 1 5 -18 5 -19 0 -27 -2 -17 -5z"/>
<path d="M1810 3436 c0 -2 7 -7 16 -10 8 -3 12 -2 9 4 -6 10 -25 14 -25 6z"/>
<path d="M3435 3271 c-6 -5 -34 -21 -62 -36 -29 -14 -53 -30 -53 -35 0 -5 -15
-8 -32 -8 -18 1 -71 -5 -118 -12 -159 -24 -589 4 -638 42 -9 7 -7 1 6 -13 12
-14 19 -29 15 -34 -5 -4 -2 -5 5 -1 7 5 40 -10 80 -37 112 -74 211 -123 332
-165 106 -37 268 -77 277 -68 2 2 -8 11 -22 20 -14 9 -24 20 -21 24 3 4 -15
18 -40 31 -67 36 -45 37 25 2 33 -17 71 -31 83 -31 19 0 14 6 -24 30 -69 43
-68 54 2 18 40 -20 59 -35 56 -44 -3 -8 2 -14 12 -15 9 0 24 -2 32 -4 72 -17
218 -45 230 -44 8 0 -25 14 -75 30 -94 31 -227 102 -202 107 8 2 55 -6 105
-16 50 -10 97 -15 104 -11 16 10 13 12 -42 32 -48 18 -115 56 -109 62 2 1 39
-8 82 -22 70 -23 82 -24 105 -12 l26 14 -30 3 c-45 5 -134 32 -134 41 0 5 19
5 43 1 86 -15 157 -20 157 -11 0 6 -26 18 -57 27 -83 25 -90 38 -17 30 55 -6
150 1 141 10 -2 3 -30 7 -63 10 -71 7 -97 24 -36 24 34 0 40 3 35 16 -3 9 0
19 6 24 7 4 -20 12 -64 19 -92 13 -108 14 -120 2z m-367 -183 c-2 -15 -10 -23
-23 -23 -13 0 -21 8 -23 23 -3 18 1 22 23 22 22 0 26 -4 23 -22z m38 -123 c18
-13 18 -14 -4 -8 -12 3 -25 9 -28 14 -8 14 10 11 32 -6z"/>
<path d="M1428 3213 c7 -3 16 -2 19 1 4 3 -2 6 -13 5 -11 0 -14 -3 -6 -6z"/>
<path d="M2610 3080 c20 -13 33 -13 25 0 -3 6 -14 10 -23 10 -15 0 -15 -2 -2
-10z"/>
<path d="M2717 3000 c3 -11 9 -20 15 -20 5 0 4 9 -2 20 -6 11 -12 20 -14 20
-2 0 -2 -9 1 -20z"/>
<path d="M1420 2891 c0 -6 5 -13 10 -16 24 -15 -6 -25 -72 -25 -95 0 -80 -11
26 -19 l85 -6 -2 37 c-1 32 -5 38 -24 38 -13 0 -23 -4 -23 -9z"/>
<path d="M1337 2814 c-3 -3 -50 -10 -104 -14 l-98 -9 109 4 c109 3 126 -8 31
-20 -27 -4 -72 -13 -100 -20 -49 -13 -49 -14 -13 -14 82 -2 91 -26 13 -36 -30
-3 -57 -11 -60 -16 -4 -5 2 -8 12 -7 36 3 118 -4 103 -9 -8 -2 -24 -8 -35 -13
-11 -5 -31 -11 -45 -14 -14 -3 11 -3 55 -1 l80 4 -42 -19 c-24 -11 -43 -26
-43 -34 0 -12 4 -13 28 -1 15 8 47 17 72 21 l45 7 -32 -27 c-38 -32 -43 -51
-10 -42 12 3 33 9 47 13 23 6 23 4 -7 -21 -38 -32 -42 -46 -12 -46 48 0 126
66 104 89 -3 2 -5 -2 -5 -10 0 -8 -14 12 -30 44 -38 72 -38 88 1 111 19 11 28
23 25 33 -3 8 -6 23 -6 34 0 15 -7 19 -38 19 -21 0 -41 -3 -45 -6z"/>
<path d="M1430 2799 c0 -5 5 -7 10 -4 6 3 10 8 10 11 0 2 -4 4 -10 4 -5 0 -10
-5 -10 -11z"/>
<path d="M3605 2790 c10 -11 20 -18 23 -15 7 6 -18 35 -31 35 -5 0 -2 -9 8
-20z"/>
<path d="M1467 2789 c7 -7 15 -10 18 -7 3 3 -2 9 -12 12 -14 6 -15 5 -6 -5z"/>
<path d="M1454 2758 c9 -5 23 -5 32 0 12 6 7 9 -16 9 -23 0 -28 -3 -16 -9z"/>
<path d="M1486 2714 c-20 -20 -20 -28 -1 -20 8 3 15 2 15 -3 0 -4 6 -8 14 -8
8 0 11 8 8 19 -7 26 -18 30 -36 12z"/>
<path d="M3995 2211 c-3 -5 -1 -12 5 -16 5 -3 10 1 10 9 0 18 -6 21 -15 7z"/>
<path d="M1060 1860 c-9 -6 -10 -10 -3 -10 6 0 15 5 18 10 8 12 4 12 -15 0z"/>
<path d="M1260 1671 c0 -14 5 -19 15 -14 17 6 15 25 -3 31 -7 2 -12 -5 -12
-17z"/>
<path d="M1580 1536 c0 -22 16 -36 41 -36 20 0 8 37 -16 48 -23 11 -25 10 -25
-12z"/>
<path d="M3939 1462 c-34 -31 -46 -51 -59 -98 l-17 -59 -31 60 c-17 33 -31 55
-32 48 0 -6 -7 -19 -16 -28 -15 -14 -15 -18 1 -41 22 -34 53 -64 65 -64 6 0
10 -7 10 -15 0 -8 -7 -15 -15 -15 -23 0 -105 84 -105 107 0 43 -8 48 -63 44
-28 -1 -58 -8 -64 -13 -19 -16 -16 -43 9 -64 12 -10 18 -13 14 -6 -10 16 2 52
18 52 6 0 29 -17 50 -39 l38 -39 -44 8 c-23 5 -45 7 -46 5 -6 -5 47 -31 93
-45 62 -19 68 -33 10 -25 -86 11 -131 14 -110 8 11 -3 29 -13 40 -23 11 -10
34 -20 50 -23 21 -3 16 -4 -18 -6 -27 0 -46 -4 -44 -8 3 -5 51 -7 106 -7 56 1
103 -2 106 -6 2 -4 -19 -12 -49 -19 -94 -21 -100 -31 -115 -195 l-6 -70 -55 2
c-54 3 -220 18 -292 27 -55 7 -47 -9 20 -42 43 -22 57 -34 57 -51 0 -12 5 -26
11 -32 10 -10 21 26 26 88 2 19 78 16 78 -3 0 -8 -7 -15 -15 -15 -9 0 -12 -6
-9 -15 4 -10 14 -13 30 -9 14 4 24 2 24 -4 0 -6 9 -8 21 -5 12 3 24 1 28 -5 4
-6 25 -14 46 -18 22 -3 44 -9 48 -13 4 -5 7 -119 5 -254 l-3 -247 25 -5 c37
-7 218 -35 275 -41 41 -5 74 1 185 35 74 23 144 40 155 37 11 -3 29 2 39 10
11 8 40 14 64 14 25 0 50 6 58 15 9 8 28 15 44 15 16 0 32 5 36 12 8 13 6 436
-3 485 -5 34 -4 35 51 48 l29 6 -6 95 c-3 53 -7 98 -9 100 -3 3 -301 34 -325
34 -2 0 1 9 7 19 16 31 12 56 -14 80 -22 21 -29 21 -147 17 -76 -3 -112 -2
-94 3 17 5 47 9 67 10 45 1 70 10 62 22 -3 5 -14 9 -25 9 -17 0 -18 3 -9 21
16 30 4 36 -23 11 -23 -22 -77 -46 -77 -35 0 4 8 15 17 26 17 18 17 20 -12 43
-17 13 -35 24 -41 24 -7 0 -31 -21 -54 -47 -22 -27 -34 -36 -25 -21 9 15 14
35 11 45 -3 10 -6 42 -7 71 -2 28 -3 52 -5 52 -1 0 -21 -17 -45 -38z m385
-240 c12 -20 -12 -33 -49 -26 -38 7 -38 7 -14 20 27 15 55 18 63 6z m-49 -75
c48 -12 50 -14 62 -57 16 -63 16 -131 1 -127 -9 1 -14 -14 -16 -43 -4 -53 -14
-67 -48 -67 l-25 0 8 96 c13 166 11 174 -47 187 -14 3 -38 9 -55 13 -27 8 -24
9 20 9 28 0 73 -5 100 -11z m174 -37 c11 -6 10 -10 -7 -19 -17 -9 -22 -21 -22
-51 0 -21 -4 -42 -10 -45 -5 -3 -10 -5 -10 -3 0 2 -4 30 -10 62 -5 32 -7 63
-4 68 6 9 35 3 63 -12z m-204 -477 c3 -15 14 -33 23 -40 16 -12 16 -13 0 -7
-14 5 -18 1 -19 -17 0 -27 -29 54 -29 84 0 26 17 12 25 -20z m45 -69 c0 -8
-19 -13 -24 -6 -3 5 1 9 9 9 8 0 15 -2 15 -3z"/>
<path d="M2975 1456 c-30 -30 -32 -52 -7 -60 27 -9 65 -53 57 -65 -3 -6 -13
-11 -21 -11 -9 0 -12 -5 -8 -12 5 -8 -4 -9 -34 -4 -26 4 -42 2 -42 -4 0 -9 41
-15 83 -12 19 2 22 -9 6 -25 -5 -5 -9 -32 -7 -59 3 -41 6 -49 23 -49 16 0 21
9 28 54 5 37 4 57 -4 61 -17 11 82 19 108 9 20 -7 23 -15 23 -64 0 -51 2 -55
24 -55 28 0 36 16 36 71 0 27 4 39 14 39 33 0 45 -14 52 -56 3 -24 9 -44 13
-44 3 0 29 8 56 19 28 10 56 16 63 14 8 -3 12 5 12 24 -1 25 -2 26 -14 11 -21
-29 -24 -25 -29 37 -2 29 -28 40 -75 33 -20 -3 -29 0 -29 10 0 8 7 12 19 9 30
-8 21 1 -21 22 -39 18 -40 18 -71 0 -35 -22 -40 -23 -40 -10 0 6 20 24 45 42
45 33 55 55 33 77 -22 22 -41 12 -100 -50 -65 -70 -57 -71 -108 13 -35 58 -54
66 -85 35z"/>
<path d="M3789 1459 c-16 -14 -18 -19 -7 -15 9 2 33 8 52 12 48 8 56 24 13 24
-21 0 -44 -8 -58 -21z"/>
<path d="M1210 1446 c0 -2 8 -10 18 -17 15 -13 16 -12 3 4 -13 16 -21 21 -21
13z"/>
<path d="M1328 1426 c-6 -30 3 -33 26 -10 18 18 21 28 5 18 -6 -3 -15 -1 -19
6 -5 8 -9 3 -12 -14z"/>
<path d="M1470 1395 l-35 -13 38 -1 c27 -1 37 3 37 14 0 8 -1 15 -2 14 -2 0
-19 -7 -38 -14z"/>
<path d="M1615 1391 c-3 -6 2 -11 12 -12 16 0 16 -1 -2 -10 -15 -7 -10 -8 20
-4 22 3 60 7 84 9 67 7 61 16 -12 16 -36 0 -72 3 -80 6 -8 3 -18 1 -22 -5z"/>
<path d="M3332 1383 c-25 -10 7 -33 38 -27 22 5 29 2 33 -12 4 -16 5 -16 6 -2
2 29 -45 54 -77 41z"/>
<path d="M2440 1370 c0 -5 -7 -6 -17 -3 -11 4 -14 3 -9 -5 10 -17 36 -15 36 3
0 8 -2 15 -5 15 -3 0 -5 -4 -5 -10z"/>
<path d="M2868 1369 c-25 -14 -22 -34 5 -35 12 0 36 -4 52 -9 l30 -8 -34 32
c-19 17 -35 31 -35 31 -1 0 -9 -5 -18 -11z"/>
<path d="M4259 1364 c15 -11 21 -23 18 -35 -3 -11 -1 -19 4 -19 17 0 9 49 -10
60 -30 16 -38 12 -12 -6z"/>
<path d="M3530 1255 c-9 -10 -9 -22 -2 -42 9 -24 11 -25 11 -6 1 12 13 31 27
42 l27 21 -25 0 c-14 0 -31 -7 -38 -15z"/>
<path d="M3395 1180 c-16 -4 -25 -8 -20 -9 6 0 48 -8 95 -16 50 -9 103 -12
130 -9 l45 7 -30 10 c-16 5 -34 13 -40 17 -14 9 -143 10 -180 0z"/>
<path d="M3638 1183 c7 -3 16 -2 19 1 4 3 -2 6 -13 5 -11 0 -14 -3 -6 -6z"/>
<path d="M2380 520 c0 -11 4 -20 9 -20 5 0 7 9 4 20 -3 11 -7 20 -9 20 -2 0
-4 -9 -4 -20z"/>
</g>
</svg>
